<mxfile host="65bd71144e">
    <diagram name="Страница 1" id="dVzgPH7k0Vtg2EmlUD4b">
        <mxGraphModel dx="810" dy="530" grid="1" gridSize="10" guides="1" tooltips="1" connect="1" arrows="1" fold="1" page="1" pageScale="1" pageWidth="827" pageHeight="1169" math="0" shadow="0">
            <root>
                <mxCell id="0"/>
                <mxCell id="1" parent="0"/>
                <mxCell id="YeWiAk7M04aXRrGpeElu-2" style="edgeStyle=orthogonalEdgeStyle;rounded=0;orthogonalLoop=1;jettySize=auto;html=1;exitX=0.5;exitY=1;exitDx=0;exitDy=0;entryX=0.5;entryY=0;entryDx=0;entryDy=0;" parent="1" source="rpdRJvrB8QKkkG5VQgA_-1" target="YeWiAk7M04aXRrGpeElu-1" edge="1">
                    <mxGeometry relative="1" as="geometry"/>
                </mxCell>
                <mxCell id="rpdRJvrB8QKkkG5VQgA_-1" value="Start" style="rounded=1;whiteSpace=wrap;html=1;" parent="1" vertex="1">
                    <mxGeometry x="354" y="40" width="120" height="60" as="geometry"/>
                </mxCell>
                <mxCell id="YeWiAk7M04aXRrGpeElu-4" style="edgeStyle=orthogonalEdgeStyle;rounded=0;orthogonalLoop=1;jettySize=auto;html=1;exitX=0.5;exitY=1;exitDx=0;exitDy=0;entryX=0.5;entryY=0;entryDx=0;entryDy=0;" parent="1" source="YeWiAk7M04aXRrGpeElu-1" target="YeWiAk7M04aXRrGpeElu-3" edge="1">
                    <mxGeometry relative="1" as="geometry"/>
                </mxCell>
                <mxCell id="YeWiAk7M04aXRrGpeElu-1" value="input&amp;nbsp; data" style="shape=parallelogram;perimeter=parallelogramPerimeter;whiteSpace=wrap;html=1;fixedSize=1;" parent="1" vertex="1">
                    <mxGeometry x="341" y="140" width="146" height="60" as="geometry"/>
                </mxCell>
                <mxCell id="YeWiAk7M04aXRrGpeElu-6" style="edgeStyle=orthogonalEdgeStyle;rounded=0;orthogonalLoop=1;jettySize=auto;html=1;exitX=0.5;exitY=1;exitDx=0;exitDy=0;entryX=0.5;entryY=0;entryDx=0;entryDy=0;" parent="1" source="YeWiAk7M04aXRrGpeElu-3" target="YeWiAk7M04aXRrGpeElu-5" edge="1">
                    <mxGeometry relative="1" as="geometry"/>
                </mxCell>
                <mxCell id="YeWiAk7M04aXRrGpeElu-3" value="input array[data]&lt;br&gt;exiting array [input array.Length]&lt;br&gt;count = 0" style="rounded=0;whiteSpace=wrap;html=1;" parent="1" vertex="1">
                    <mxGeometry x="354" y="230" width="120" height="60" as="geometry"/>
                </mxCell>
                <mxCell id="YeWiAk7M04aXRrGpeElu-8" value="yes" style="edgeStyle=orthogonalEdgeStyle;rounded=0;orthogonalLoop=1;jettySize=auto;html=1;exitX=0.5;exitY=1;exitDx=0;exitDy=0;entryX=0.5;entryY=0;entryDx=0;entryDy=0;" parent="1" source="YeWiAk7M04aXRrGpeElu-5" target="YeWiAk7M04aXRrGpeElu-7" edge="1">
                    <mxGeometry relative="1" as="geometry"/>
                </mxCell>
                <mxCell id="YeWiAk7M04aXRrGpeElu-16" style="edgeStyle=orthogonalEdgeStyle;rounded=0;orthogonalLoop=1;jettySize=auto;html=1;exitX=1;exitY=0.5;exitDx=0;exitDy=0;entryX=0.5;entryY=0;entryDx=0;entryDy=0;" parent="1" source="YeWiAk7M04aXRrGpeElu-5" target="YeWiAk7M04aXRrGpeElu-15" edge="1">
                    <mxGeometry relative="1" as="geometry">
                        <Array as="points">
                            <mxPoint x="760" y="370"/>
                            <mxPoint x="760" y="600"/>
                            <mxPoint x="414" y="600"/>
                        </Array>
                    </mxGeometry>
                </mxCell>
                <mxCell id="YeWiAk7M04aXRrGpeElu-17" value="no" style="edgeLabel;html=1;align=center;verticalAlign=middle;resizable=0;points=[];" parent="YeWiAk7M04aXRrGpeElu-16" vertex="1" connectable="0">
                    <mxGeometry x="-0.9231" y="-1" relative="1" as="geometry">
                        <mxPoint as="offset"/>
                    </mxGeometry>
                </mxCell>
                <mxCell id="YeWiAk7M04aXRrGpeElu-5" value="i = 0&lt;br&gt;i &amp;lt; array length&lt;br&gt;i ++" style="rhombus;whiteSpace=wrap;html=1;" parent="1" vertex="1">
                    <mxGeometry x="346" y="330" width="136" height="80" as="geometry"/>
                </mxCell>
                <mxCell id="YeWiAk7M04aXRrGpeElu-10" value="yes" style="edgeStyle=orthogonalEdgeStyle;rounded=0;orthogonalLoop=1;jettySize=auto;html=1;exitX=1;exitY=0.5;exitDx=0;exitDy=0;entryX=0;entryY=0.5;entryDx=0;entryDy=0;" parent="1" source="YeWiAk7M04aXRrGpeElu-7" target="YeWiAk7M04aXRrGpeElu-9" edge="1">
                    <mxGeometry relative="1" as="geometry"/>
                </mxCell>
                <mxCell id="YeWiAk7M04aXRrGpeElu-12" value="no" style="edgeStyle=orthogonalEdgeStyle;rounded=0;orthogonalLoop=1;jettySize=auto;html=1;exitX=0;exitY=0.5;exitDx=0;exitDy=0;" parent="1" source="YeWiAk7M04aXRrGpeElu-7" edge="1">
                    <mxGeometry relative="1" as="geometry">
                        <mxPoint x="280" y="490" as="targetPoint"/>
                    </mxGeometry>
                </mxCell>
                <mxCell id="YeWiAk7M04aXRrGpeElu-7" value="input array[i] &amp;lt; 4" style="rhombus;whiteSpace=wrap;html=1;" parent="1" vertex="1">
                    <mxGeometry x="321" y="450" width="186" height="80" as="geometry"/>
                </mxCell>
                <mxCell id="YeWiAk7M04aXRrGpeElu-9" value="input array[i] = exiting array [count]&lt;br&gt;count ++" style="rounded=0;whiteSpace=wrap;html=1;" parent="1" vertex="1">
                    <mxGeometry x="560" y="460" width="160" height="60" as="geometry"/>
                </mxCell>
                <mxCell id="YeWiAk7M04aXRrGpeElu-14" style="edgeStyle=orthogonalEdgeStyle;rounded=0;orthogonalLoop=1;jettySize=auto;html=1;exitX=0.5;exitY=1;exitDx=0;exitDy=0;entryX=0;entryY=0.5;entryDx=0;entryDy=0;" parent="1" source="YeWiAk7M04aXRrGpeElu-9" target="YeWiAk7M04aXRrGpeElu-5" edge="1">
                    <mxGeometry relative="1" as="geometry">
                        <mxPoint x="414" y="570" as="sourcePoint"/>
                        <Array as="points">
                            <mxPoint x="640" y="560"/>
                            <mxPoint x="280" y="560"/>
                            <mxPoint x="280" y="370"/>
                        </Array>
                    </mxGeometry>
                </mxCell>
                <mxCell id="Vslcq0lGSEf2MRW7Jufv-3" style="edgeStyle=orthogonalEdgeStyle;rounded=0;orthogonalLoop=1;jettySize=auto;html=1;exitX=0.5;exitY=1;exitDx=0;exitDy=0;" parent="1" source="YeWiAk7M04aXRrGpeElu-15" target="Vslcq0lGSEf2MRW7Jufv-2" edge="1">
                    <mxGeometry relative="1" as="geometry"/>
                </mxCell>
                <mxCell id="YeWiAk7M04aXRrGpeElu-15" value="exiting array [string]" style="shape=parallelogram;perimeter=parallelogramPerimeter;whiteSpace=wrap;html=1;fixedSize=1;" parent="1" vertex="1">
                    <mxGeometry x="341" y="640" width="146" height="60" as="geometry"/>
                </mxCell>
                <mxCell id="Vslcq0lGSEf2MRW7Jufv-2" value="End" style="rounded=1;whiteSpace=wrap;html=1;" parent="1" vertex="1">
                    <mxGeometry x="354" y="760" width="120" height="60" as="geometry"/>
                </mxCell>
            </root>
        </mxGraphModel>
    </diagram>
</mxfile>